<svg xmlns="http://www.w3.org/2000/svg" width="30" height="20" viewBox="0 0 30 20">
    <g fill="none" fill-rule="evenodd">
        <path d="M0 0h30v20H0z"/>
        <g fill="#00589F">
            <path d="M12.004 6.367l-1.365 7.796h2.185l1.367-7.796zM20.744 6.559a5.756 5.756 0 0 0-1.956-.328c-2.159 0-3.679 1.057-3.691 2.574-.014 1.119 1.085 1.745 1.912 2.118.851.383 1.136.627 1.133.968-.007.521-.678.76-1.309.76-.872 0-1.337-.118-2.054-.409l-.281-.124-.308 1.744c.512.219 1.454.408 2.435.417 2.294 0 3.785-1.045 3.801-2.664.01-.886-.573-1.561-1.832-2.118-.764-.36-1.233-.601-1.227-.967 0-.323.396-.67 1.25-.67a4.115 4.115 0 0 1 1.635.298l.195.09.297-1.69M26.348 6.375H24.66c-.524 0-.916.138-1.145.646l-3.244 7.145h2.294l.459-1.172 2.797.003c.065.273.266 1.168.266 1.168h2.028l-1.767-7.79zM23.653 11.4c.181-.45.87-2.179.87-2.179-.014.02.18-.452.29-.745l.147.672s.418 1.863.504 2.253h-1.811V11.4zM8.808 6.372l-2.14 5.318-.226-1.081c-.398-1.245-1.639-2.595-3.026-3.271l1.956 6.82 2.31-.004 3.44-7.782H8.808"/>
            <path d="M4.685 6.368H1.163l-.028.162c2.74.646 4.554 2.205 5.307 4.079l-.766-3.583c-.135-.494-.516-.64-.99-.658"/>
        </g>
    </g>
</svg>
