<svg xmlns="http://www.w3.org/2000/svg" width="328" height="264" viewBox="0 0 328 264">
    <defs>
        <linearGradient id="prefix__a" x1="78.268%" x2="25.535%" y1="28.176%" y2="72.52%">
            <stop offset="0%" stop-color="#ACDDFF" stop-opacity=".571"/>
            <stop offset="100%" stop-color="#61B1E7"/>
        </linearGradient>
        <linearGradient id="prefix__b" x1="0%" x2="100%" y1="50%" y2="50%">
            <stop offset="0%" stop-color="#C5B5F5"/>
            <stop offset="100%" stop-color="#927EE7"/>
        </linearGradient>
        <linearGradient id="prefix__c" x1="0%" x2="100%" y1="0%" y2="100%">
            <stop offset="0%" stop-color="#C5B5F5"/>
            <stop offset="100%" stop-color="#927EE7"/>
        </linearGradient>
        <linearGradient id="prefix__d" x1="50%" x2="50%" y1="0%" y2="100%">
            <stop offset="0%" stop-color="#9AD9F5"/>
            <stop offset="100%" stop-color="#61B1E7"/>
        </linearGradient>
        <linearGradient id="prefix__e" x1="68.145%" x2="31.855%" y1="0%" y2="100%">
            <stop offset="0%" stop-color="#A5A8B2"/>
            <stop offset="100%" stop-color="#6C6F7A"/>
        </linearGradient>
        <linearGradient id="prefix__f" x1="100%" x2="0%" y1="47.337%" y2="52.663%">
            <stop offset="0%" stop-color="#A5A8B2"/>
            <stop offset="100%" stop-color="#6C6F7A"/>
        </linearGradient>
        <linearGradient id="prefix__g" x1="0%" x2="100%" y1="0%" y2="100%">
            <stop offset="0%" stop-color="#A5A8B2"/>
            <stop offset="100%" stop-color="#6C6F7A"/>
        </linearGradient>
        <linearGradient id="prefix__h" x1="-37.798%" x2="148.823%" y1="-6.32%" y2="104.949%">
            <stop offset="0%" stop-color="#A5A8B2"/>
            <stop offset="100%" stop-color="#6C6F7A"/>
        </linearGradient>
        <linearGradient id="prefix__i" x1="100%" x2="0%" y1="0%" y2="100%">
            <stop offset="0%" stop-color="#A5A8B2"/>
            <stop offset="100%" stop-color="#6C6F7A"/>
        </linearGradient>
    </defs>
    <g fill="none" fill-rule="evenodd">
        <path fill="url(#prefix__a)" fill-opacity=".31" fill-rule="nonzero" d="M261.054 118.766c18.931 4.75 30.452 24.046 25.732 43.099-4.347 17.544-20.949 28.765-38.332 26.722l18.64 4.677c18.932 4.75 30.453 24.046 25.732 43.099-4.72 19.053-23.893 30.647-42.825 25.896L46.924 211.303c-18.931-4.75-30.452-24.047-25.731-43.1 4.346-17.544 20.948-28.764 38.332-26.72l-32.735-8.215C7.858 128.518-3.662 109.222 1.058 90.17c4.72-19.052 23.893-30.647 42.825-25.896l23.063 5.787c-18.931-4.75-30.452-24.047-25.732-43.1C45.934 7.909 65.108-3.685 84.04 1.065L301.21 55.558c18.932 4.75 30.452 24.046 25.732 43.099-4.72 19.052-23.893 30.646-42.825 25.896l-23.063-5.787z"/>
        <path stroke="url(#prefix__b)" stroke-width="3" d="M266.475 97.855L280.334 97.855 280.334 111.714 266.475 111.714z" opacity=".7" transform="scale(-1 1) rotate(45 0 -555.271)"/>
        <path fill="url(#prefix__c)" fill-rule="nonzero" d="M48.507 124.732c1.701 0 3.08 1.38 3.08 3.08v3.078l3.08.002c1.7 0 3.08 1.379 3.08 3.08 0 1.7-1.38 3.08-3.08 3.08l-3.08-.001v3.08c0 1.701-1.379 3.08-3.08 3.08-1.7 0-3.08-1.379-3.08-3.08l-.001-3.08h-3.079c-1.7 0-3.08-1.378-3.08-3.08 0-1.7 1.38-3.079 3.08-3.079l3.079-.002.001-3.078c0-1.7 1.38-3.08 3.08-3.08z" opacity=".7" transform="matrix(-1 0 0 1 97.014 0)"/>
        <path stroke="#61B1E7" stroke-width="5" d="M88.98 11.349l-8.336 8.335c-1.757 1.758-1.757 4.607 0 6.364l8.336 8.336c1.758 1.758 4.607 1.758 6.364 0l8.336-8.336c1.757-1.757 1.757-4.606 0-6.364l-8.336-8.335c-1.757-1.758-4.606-1.758-6.364 0z" opacity=".5"/>
        <path fill="url(#prefix__d)" fill-rule="nonzero" d="M243.305 231.492l-2.178-2.178c-1.202-1.203-1.202-3.153 0-4.356 1.203-1.202 3.153-1.202 4.356 0l2.178 2.178 2.177-2.178c1.203-1.202 3.153-1.202 4.356 0 1.203 1.203 1.203 3.153 0 4.356l-2.178 2.178 2.178 2.177c1.203 1.203 1.203 3.153 0 4.356-1.203 1.203-3.153 1.203-4.356 0l-2.177-2.178-2.178 2.178c-1.203 1.203-3.153 1.203-4.356 0-1.202-1.203-1.202-3.153 0-4.356l2.178-2.177z" opacity=".5"/>
        <g fill-rule="nonzero">
            <path fill="#FFF" d="M9.24 0h97.014c5.102 0 9.239 4.137 9.239 9.24v173.239c0 5.103-4.137 9.24-9.24 9.24H9.24c-5.102 0-9.239-4.137-9.239-9.24V9.239C0 4.137 4.137 0 9.24 0z" transform="translate(110.873 34.648)"/>
            <path fill="url(#prefix__e)" d="M106.254 0c5.102 0 9.239 4.137 9.239 9.24v173.239c0 5.103-4.137 9.24-9.24 9.24H9.24c-5.102 0-9.239-4.137-9.239-9.24V9.239C0 4.137 4.137 0 9.24 0h97.014zm-2.31 6.93H11.549c-2.435 0-4.43 1.884-4.607 4.275l-.012.344v168.62c0 2.435 1.884 4.43 4.275 4.607l.344.013h92.395c2.435 0 4.43-1.885 4.607-4.275l.012-.345V11.549c0-2.435-1.884-4.43-4.275-4.607l-.344-.012z" transform="translate(110.873 34.648)"/>
            <path fill="url(#prefix__f)" d="M45.021 177.86c-1.902 0-3.444-1.552-3.444-3.466 0-1.913 1.542-3.464 3.444-3.464h23.141c1.902 0 3.444 1.55 3.444 3.464s-1.542 3.465-3.444 3.465h-23.14z" transform="translate(110.873 34.648)"/>
            <g>
                <path fill="url(#prefix__g)" d="M32.338 60.056c15.308 0 27.718-12.41 27.718-27.718S47.646 4.62 32.338 4.62 4.62 17.03 4.62 32.338s12.41 27.718 27.718 27.718zm0 4.62C14.478 64.676 0 50.198 0 32.338S14.478 0 32.338 0s32.338 14.478 32.338 32.338-14.478 32.338-32.338 32.338z" transform="translate(110.873 34.648) translate(25.408 62.366) matrix(-1 0 0 1 64.676 0)"/>
                <path fill="url(#prefix__h)" d="M31.403 43.123v-2.226H21.215c.532-2.258 2.607-3.338 4.423-4.438l.744-.458c2.66-1.655 5.19-3.52 5.19-7.083 0-3.535-2.439-5.82-6.187-5.82-3.832 0-6.38 2.626-6.38 6.58l.025.536h2.198c.059-2.487 1.083-5.027 4.047-5.027 2.263 0 3.832 1.551 3.832 3.783 0 2.465-1.861 3.894-3.723 5.096l-1.634 1.04c-3.076 1.989-5.034 3.702-5.271 8.017h12.924zm16.342-4.844v-2.213h-2.71V23.1h-2.167L34.12 35.837v2.442h8.703v4.844h2.211v-4.844h2.71zM42.823 26.56v9.499H36.48l6.342-9.499z" transform="translate(110.873 34.648) translate(25.408 62.366)"/>
            </g>
            <path fill="url(#prefix__i)" d="M139.977 117.803c3.062 0 5.544 2.482 5.544 5.543v33.262c0 3.062-2.482 5.544-5.544 5.544h-38.805L90.085 173.24v-49.893c0-3.076 2.494-5.543 5.543-5.543h44.35" transform="translate(110.873 34.648)"/>
            <g fill="#FFF">
                <path d="M20.381 23.869H7.337v-10.01c0-3.85 2.899-6.93 6.522-6.93s6.522 3.08 6.522 6.93v10.01zm2.899-1.54v-8.47c0-4.727-3.102-8.685-7.247-9.732V3.08c0-1.276-.973-2.31-2.174-2.31-1.2 0-2.174 1.034-2.174 2.31v1.047C7.525 5.174 4.44 9.132 4.44 13.859v8.47l-2.9 3.08v1.54h24.64v-1.54l-2.9-3.08zm-9.42 9.24c1.6 0 2.898-1.38 2.898-3.08H10.96c0 1.7 1.297 3.08 2.898 3.08z" transform="translate(110.873 34.648) translate(103.944 124.732)"/>
            </g>
        </g>
        <g fill-rule="nonzero">
            <path fill="#FF5B5C" d="M9.24 0c5.102 0 9.239 4.137 9.239 9.24 0 5.102-4.137 9.239-9.24 9.239C4.137 18.479 0 14.342 0 9.239 0 4.137 4.137 0 9.24 0z" transform="translate(244.845 143.211)"/>
            <path fill="#FFF" d="M10.562 13.86V3.965H9.236l-2.91 2.287.799 1.008c.861-.7 1.368-1.114 1.519-1.245.151-.13.279-.25.382-.359-.036.447-.054 1.052-.054 1.814v6.388h1.59z" transform="translate(244.845 143.211)"/>
        </g>
    </g>
</svg>
