<svg width="142" height="142" viewBox="0 0 142 142" fill="none" xmlns="http://www.w3.org/2000/svg">
<g id="ok">
<circle id="Ellipse 60" cx="71.8954" cy="67.3236" r="36.3236" fill="#42B1EB" fill-opacity="0.15"/>
<path id="Stroke 196" fill-rule="evenodd" clip-rule="evenodd" d="M86.6303 55.4439C87.381 54.5889 88.6826 54.5044 89.5376 55.2551C90.3925 56.0058 90.477 57.3074 89.7263 58.1624L71.6029 78.802C70.9264 79.5724 69.7865 79.7281 68.9282 79.1674L57.1132 69.9997C56.1607 69.3775 55.893 68.1009 56.5152 67.1484C57.1375 66.1959 58.414 65.9282 59.3665 66.5505L69.6858 74.741L86.6303 55.4439Z" fill="#8DC641"/>
<path id="Ellipse 50 (Stroke)" fill-rule="evenodd" clip-rule="evenodd" d="M27 64.8638C26.1716 64.8638 25.5 64.1922 25.5 63.3638C25.5 62.5353 26.1716 61.8638 27 61.8638C27.8284 61.8638 28.5 62.5353 28.5 63.3638C28.5 64.1922 27.8284 64.8638 27 64.8638ZM27 66.3638C25.3431 66.3638 24 65.0206 24 63.3638C24 61.7069 25.3431 60.3638 27 60.3638C28.6569 60.3638 30 61.7069 30 63.3638C30 65.0206 28.6569 66.3638 27 66.3638Z" fill="#00B2FF"/>
<path id="Ellipse 51 (Stroke)" fill-rule="evenodd" clip-rule="evenodd" d="M91 108.864C90.1716 108.864 89.5 108.192 89.5 107.364C89.5 106.535 90.1716 105.864 91 105.864C91.8284 105.864 92.5 106.535 92.5 107.364C92.5 108.192 91.8284 108.864 91 108.864ZM91 110.364C89.3431 110.364 88 109.021 88 107.364C88 105.707 89.3431 104.364 91 104.364C92.6569 104.364 94 105.707 94 107.364C94 109.021 92.6569 110.364 91 110.364Z" fill="#00B2FF"/>
<path id="Vector" d="M27.163 77.6298L29.7647 76.67C31.8706 75.8934 33.5305 74.2334 34.3071 72.1277L35.2668 69.5265C35.3027 69.4287 35.3961 69.3638 35.5003 69.3638C35.6045 69.3638 35.6979 69.4287 35.7338 69.5265L36.6935 72.1277C37.4701 74.2337 39.13 75.8937 41.2356 76.67L43.8373 77.6298C43.9351 77.6657 44 77.7591 44 77.8633C44 77.9675 43.9351 78.061 43.8373 78.0968L41.2359 79.0566C39.1297 79.8332 37.4698 81.4935 36.6932 83.5996L35.7335 86.2011C35.6976 86.2988 35.6042 86.3638 35.5 86.3638C35.3958 86.3638 35.3024 86.2988 35.2665 86.2011L34.3068 83.5996C33.5302 81.4935 31.8703 79.8332 29.7641 79.0566L27.1627 78.0968C27.065 78.061 27 77.9675 27 77.8633C27 77.7591 27.065 77.6657 27.163 77.6298Z" fill="#FFA2BA"/>
<path id="Vector_2" d="M99.163 95.6298L101.765 94.67C103.871 93.8934 105.53 92.2334 106.307 90.1277L107.267 87.5265C107.303 87.4287 107.396 87.3638 107.5 87.3638C107.605 87.3638 107.698 87.4287 107.734 87.5265L108.694 90.1277C109.47 92.2337 111.13 93.8937 113.236 94.67L115.837 95.6298C115.935 95.6657 116 95.7591 116 95.8633C116 95.9675 115.935 96.061 115.837 96.0968L113.236 97.0566C111.13 97.8332 109.47 99.4935 108.693 101.6L107.734 104.201C107.698 104.299 107.604 104.364 107.5 104.364C107.396 104.364 107.302 104.299 107.266 104.201L106.307 101.6C105.53 99.4935 103.87 97.8332 101.764 97.0566L99.1627 96.0968C99.065 96.061 99 95.9675 99 95.8633C99 95.7591 99.065 95.6657 99.163 95.6298Z" fill="#FFA2BA"/>
<path id="Vector_3" d="M39.0767 40.2537L40.301 39.802C41.292 39.4365 42.0732 38.6553 42.4386 37.6644L42.8903 36.4403C42.9071 36.3943 42.9511 36.3638 43.0001 36.3638C43.0492 36.3638 43.0931 36.3943 43.11 36.4403L43.5617 37.6644C43.9271 38.6555 44.7083 39.4367 45.6991 39.802L46.9234 40.2537C46.9694 40.2705 47 40.3145 47 40.3636C47 40.4126 46.9694 40.4566 46.9234 40.4734L45.6993 40.9251C44.7081 41.2906 43.927 42.0719 43.5615 43.063L43.1099 44.2872C43.093 44.3332 43.049 44.3638 43 44.3638C42.951 44.3638 42.907 44.3332 42.8901 44.2872L42.4385 43.063C42.073 42.0719 41.2919 41.2906 40.3007 40.9251L39.0766 40.4734C39.0306 40.4566 39 40.4126 39 40.3636C39 40.3145 39.0306 40.2705 39.0767 40.2537Z" fill="#FFA2BA"/>
<path id="Vector_4" d="M111.077 58.2537L112.301 57.802C113.292 57.4365 114.073 56.6553 114.439 55.6644L114.89 54.4403C114.907 54.3943 114.951 54.3638 115 54.3638C115.049 54.3638 115.093 54.3943 115.11 54.4403L115.562 55.6644C115.927 56.6555 116.708 57.4367 117.699 57.802L118.923 58.2537C118.969 58.2705 119 58.3145 119 58.3636C119 58.4126 118.969 58.4566 118.923 58.4734L117.699 58.9251C116.708 59.2906 115.927 60.0719 115.562 61.063L115.11 62.2872C115.093 62.3332 115.049 62.3638 115 62.3638C114.951 62.3638 114.907 62.3332 114.89 62.2872L114.438 61.063C114.073 60.0719 113.292 59.2906 112.301 58.9251L111.077 58.4734C111.031 58.4566 111 58.4126 111 58.3636C111 58.3145 111.031 58.2705 111.077 58.2537Z" fill="#FFA2BA"/>
</g>
</svg>
