<svg xmlns="http://www.w3.org/2000/svg" width="48" height="48" viewBox="0 0 48 48">
    <g fill="none" fill-rule="evenodd">
        <path fill="#E7E7E7" d="M24 0C10.766 0 0 10.766 0 24s10.766 24 24 24 24-10.766 24-24S37.234 0 24 0z"/>
        <path fill="#9E9E9E" d="M24 6.416c4.254 0 7.716 3.462 7.716 7.716 0 4.256-3.462 7.716-7.716 7.716s-7.716-3.46-7.716-7.716c0-4.254 3.462-7.716 7.716-7.716zM37.646 33.966A16.412 16.412 0 0 1 24 41.244a16.414 16.414 0 0 1-13.646-7.278l-.268-.396.008-.478c.084-5.626 9.848-7.9 13.906-7.9s13.822 2.274 13.906 7.9l.008.478-.268.396z"/>
    </g>
</svg>
