<svg xmlns="http://www.w3.org/2000/svg" width="30" height="20" viewBox="0 0 30 20">
    <g fill="none" fill-rule="evenodd">
        <path d="M0 0h30v20H0z"/>
        <path fill="#FFF" d="M10.238 4.477c3.231 0 5.851 2.472 5.851 5.521 0 3.05-2.62 5.524-5.851 5.524-3.23 0-5.85-2.473-5.85-5.524 0-3.049 2.62-5.521 5.85-5.521z"/>
        <path fill="#FFAF38" d="M19.51 4.477c3.232 0 5.852 2.472 5.852 5.521 0 3.05-2.62 5.524-5.852 5.524-3.231 0-5.851-2.473-5.851-5.524 0-3.049 2.62-5.521 5.851-5.521z"/>
        <path fill="#EB3636" d="M10.238 4.477c3.231 0 5.851 2.472 5.851 5.521 0 3.05-2.62 5.524-5.851 5.524-3.23 0-5.85-2.473-5.85-5.524 0-3.049 2.62-5.521 5.85-5.521z"/>
        <path fill="#F57137" d="M13.698 9.98a5.3 5.3 0 0 0 1.214 3.358A5.297 5.297 0 0 0 16.11 10a5.284 5.284 0 0 0-1.214-3.358 5.304 5.304 0 0 0-1.198 3.34z"/>
    </g>
</svg>
